<svg version="1" xmlns="http://www.w3.org/2000/svg" width="1365.333" height="1365.333" viewBox="0 0 1024.000000 1024.000000"><path d="M292 118.8c-2.7.3-6.8 2.1-8.6 3.7-1.3 1.2-88.2 86.6-104.6 102.9l-11 10.8-3-2.8c-5.3-5-26.9-25.6-34.2-32.7-8.6-8.3-11.3-9.8-17.5-9.9-7.6 0-12 3-29.3 20.4-15.8 15.9-18.7 19.9-19.5 26.6-.8 7.3.9 9.9 18.8 28.2 44.3 45.3 70.7 71.8 73.9 74 3 2.2 4.6 2.5 11.5 2.4 12.2 0 13-.5 26-14.3 10.3-11 38.4-39.1 107.2-107.1 35.7-35.3 40.1-40 41.6-44.4.9-2.7 1.7-6.7 1.7-8.8 0-5.3-3.6-12.5-8.6-17.3-32.4-30.8-35.2-32.8-44.4-31.7zM443.5 175c-21.1.5-23.3.7-27.1 2.7-5.4 2.9-10.2 7.9-12.8 13.3-2 4.3-2.1 6.2-2.3 38.2-.1 21.7.2 34.9.8 37 3.2 9.8 7.1 14.5 15.8 18.5l5.3 2.6 258.7-.1h258.6l5.5-2.1c6.7-2.5 12.1-7.7 15.1-14.6 2.2-4.8 2.3-6.2 2.4-37.5 0-17.9-.3-34.5-.8-37-1.9-8.8-8.9-16.6-17.6-19.5-4.6-1.5-23.1-1.7-241.8-1.8-130.2-.1-247.1 0-259.8.3zM287 399.3c-2.3 1.1-12.2 10.7-71.5 69.2-42.2 41.6-47.3 46.5-47.9 46.5-.4 0-3.5-2.8-7-6.3-3.5-3.4-12.5-12.1-20.1-19.2-7.5-7.2-14.3-13.6-15-14.3-2.4-2.2-11.5-3.9-16.2-3.1-7.7 1.5-10.9 3.7-22.6 16.2-17.5 18.5-18.6 19.8-20.8 24.4-2.3 4.7-2.1 10.8.6 16 2 3.9 85.8 87.8 91.9 91.9 6.3 4.4 12.5 4.9 19.9 1.5 5.1-2.4 161.1-158 164.1-163.8 2.7-5 3.2-12.8 1.1-17.7-2.3-5.5-34.8-37.9-40.7-40.6-4.8-2.2-12-2.5-15.8-.7zM425.1 456.2c-6.3 1-11.5 3.5-15.9 7.9-7.4 7.3-8.2 12.3-8.1 50.2.1 32.3.5 35.6 5.6 42.7 3.3 4.5 9.2 8.6 14.8 10.2 2.9.8 76 1.1 262 1.1h258l5.7-2.7c5.5-2.6 12.8-9.6 12.8-12.2 0-.7.4-1.4.9-1.6 2-.7 2.7-11.7 2.6-42.3-.1-30.2-.3-32.3-2.2-36.7-4.2-9.2-11.5-15-21.1-16.4-6.3-1-508.5-1.1-515.1-.2zM159 710.5c-6.4 1.3-17.7 5.2-22.2 7.6-1.3.8-2.5 1.4-2.8 1.4-1.6.3-11.3 7.3-16.7 12.1-10.7 9.4-19.1 22.7-23.2 36.7-4.3 14.6-4.5 32.1-.6 47.2 7.4 28.5 34.6 53.6 65.3 60.1 8.1 1.8 27.8 1.7 35.5-.1 22.2-5.2 37.5-15.4 52-34.8 4.2-5.5 9.4-17.2 11.8-26.2 2.3-8.9 3.2-28.9 1.6-36-3.4-14.6-8.2-26.5-13.1-32.7-1.1-1.4-3.1-4-4.4-5.6-10.9-14.4-29.2-25.5-48.7-29.7-7.6-1.7-26-1.6-34.5 0zM436.5 737c-17.3.6-20.7 1.5-26.5 7.4-8.6 8.6-8.5 8-8.7 47 0 20.3.3 35.1.9 37 3.1 9.7 7.1 14.4 15.6 18.3l5.2 2.4 258.8.1c178.7 0 259.6-.4 261.5-1.1 1.5-.6 2.7-.8 2.7-.5 0 1.2 9.1-5.9 11.8-9.2 5.2-6.3 5.7-9.7 5.6-46 0-29.7-.2-33.5-1.8-37.9-3.4-8.8-11.5-15.7-20.3-17.1-4.7-.7-482.5-1.1-504.8-.4z"/></svg>